# File created by Blade
# Date/Time:  Wed Sep 24 19:10:19 2014
# Frame Rate: 120.000 fps
#------------------------------------------------------
:FULLY-SPECIFIED
:DEGREES
2382
root -8.849339 33.688701 -5.280431 22.736041 23.130919 24.810937
Spine -1.043107 3.750291 -13.389449
Head -6.863963 13.637522 -0.503019
LeftShoulder -1.408868 5.880904 15.269326
LeftArm 42.665745 -7.907323 -72.225627
LeftForeArm 1.871700 -0.000000 62.729991
LeftHand -25.878435 -0.000000 32.226275
LeftHandThumb1 -26.253704 0.000000 33.147579
RightShoulder -12.788409 13.465750 -19.680517
RightArm -11.818719 -25.350167 81.208620
RightForeArm -22.291926 0.000000 29.672099
RightHand -4.395333 -0.000000 9.858417
RightHandThumb1 -24.326973 -0.000000 -32.862282
LeftUpLeg -62.426147 13.172533 24.154798
LeftLeg 105.000685 -0.000000 -0.000000
LeftFoot 42.817887 -1.745144 -14.187638
LeftToeBase 4.882335 -0.000000 -0.000000
RightUpLeg -23.990126 -17.268856 -11.386095
RightLeg 21.032869 -0.000000 -0.000000
RightFoot -10.959645 -26.130565 -5.943344
RightToeBase -1.452311 -0.000000 0.000000
2383
root -8.860165 33.687777 -5.283050 22.787540 23.295848 24.838478
Spine -0.996879 3.658026 -13.331232
Head -6.926449 13.463133 -0.517482
LeftShoulder -1.478300 6.097789 15.172535
LeftArm 43.111922 -7.743798 -72.080020
LeftForeArm 1.833427 0.000000 62.666171
LeftHand -25.777210 -0.000000 31.947499
LeftHandThumb1 -26.253704 0.000000 33.147579
RightShoulder -12.755204 13.532924 -19.678343
RightArm -11.779291 -25.377245 81.215878
RightForeArm -22.377354 -0.000000 29.617964
RightHand -4.425898 -0.000000 9.991286
RightHandThumb1 -24.326973 -0.000000 -32.862282
LeftUpLeg -62.819511 13.978873 23.256379
LeftLeg 104.838891 -0.000000 -0.000000
LeftFoot 42.754898 -1.741304 -14.192418
LeftToeBase 4.840155 -0.000000 -0.000000
RightUpLeg -23.966659 -17.350919 -11.347934
RightLeg 20.996237 -0.000000 -0.000000
RightFoot -10.982414 -26.225766 -5.904310
RightToeBase -1.376976 -0.000000 0.000000
2384
root -8.873579 33.685646 -5.288204 22.837991 23.543437 24.837807
Spine -0.943762 3.524913 -13.181383
Head -6.984270 13.275208 -0.589912
LeftShoulder -1.460766 6.164469 15.072011
LeftArm 43.393361 -7.594849 -71.969851
LeftForeArm 1.828075 -0.000000 62.612614
LeftHand -25.760561 -0.000000 32.021374
LeftHandThumb1 -26.253704 0.000000 33.147579
RightShoulder -12.721847 13.620149 -19.725773
RightArm -11.766382 -25.499186 81.255292
RightForeArm -22.299838 0.000000 29.506444
RightHand -4.302841 -0.000000 10.010797
RightHandThumb1 -24.326973 -0.000000 -32.862282
LeftUpLeg -63.330687 14.803522 22.298367
LeftLeg 104.645695 -0.000000 -0.000000
LeftFoot 42.938683 -2.003020 -13.888172
LeftToeBase 4.097956 -0.000000 -0.000000
RightUpLeg -23.934039 -17.487223 -11.250745
RightLeg 20.946746 -0.000000 -0.000000
RightFoot -10.985225 -26.328339 -5.875125
RightToeBase -1.320577 -0.000000 0.000000
2385
root -8.890162 33.680185 -5.284544 22.836980 23.784155 24.806307
Spine -0.868211 3.422532 -13.022354
Head -7.016634 13.098163 -0.638562
LeftShoulder -1.376914 6.086257 15.035124
LeftArm 43.479481 -7.480795 -71.915565
LeftForeArm 1.915284 0.000000 62.552253
LeftHand -25.672950 -0.000000 31.859803
LeftHandThumb1 -26.253704 0.000000 33.147579
RightShoulder -12.666038 13.692362 -19.772448
RightArm -11.794655 -25.508423 81.322397
RightForeArm -22.304184 0.000000 29.458386
RightHand -4.378636 0.000000 10.047244
RightHandThumb1 -24.326973 -0.000000 -32.862282
LeftUpLeg -63.832169 15.803753 21.259529
LeftLeg 104.350790 -0.000000 -0.000000
LeftFoot 43.223329 -2.008705 -13.975893
LeftToeBase 3.621740 -0.000000 -0.000000
RightUpLeg -23.834542 -17.528395 -11.145894
RightLeg 20.872404 -0.000000 -0.000000
RightFoot -11.007516 -26.530670 -5.844102
RightToeBase -1.242517 -0.000000 0.000000
2386
root -8.908395 33.676160 -5.281387 22.855684 24.070701 24.795024
Spine -0.789290 3.281594 -12.873969
Head -7.057477 12.907045 -0.650971
LeftShoulder -1.274422 5.961248 15.006091
LeftArm 43.526323 -7.379026 -71.894772
LeftForeArm 1.849127 0.000000 62.510443
LeftHand -25.636011 -0.000000 31.891656
LeftHandThumb1 -26.253704 0.000000 33.147579
RightShoulder -12.637664 13.746717 -19.799844
RightArm -11.779762 -25.535770 81.371927
RightForeArm -22.355527 -0.000000 29.382436
RightHand -4.371826 -0.000000 10.027076
RightHandThumb1 -24.326973 -0.000000 -32.862282
LeftUpLeg -64.443988 16.856761 20.057651
LeftLeg 104.113816 -0.000000 -0.000000
LeftFoot 43.127434 -1.905208 -14.209912
LeftToeBase 3.899562 -0.000000 -0.000000
RightUpLeg -23.732275 -17.638902 -11.037436
RightLeg 20.791643 -0.000000 -0.000000
RightFoot -11.022834 -26.684959 -5.812998
RightToeBase -1.193271 -0.000000 0.000000
2387
root -8.928063 33.670581 -5.275357 22.840605 24.368224 24.728370
Spine -0.718624 3.157490 -12.651142
Head -7.067598 12.718247 -0.647243
LeftShoulder -1.116362 5.790192 14.953671
LeftArm 43.486302 -7.315298 -71.880536
LeftForeArm 1.909301 0.000000 62.463107
LeftHand -25.641796 -0.000000 31.821086
LeftHandThumb1 -26.253704 0.000000 33.147579
RightShoulder -12.582168 13.794245 -19.836261
RightArm -11.809561 -25.569255 81.428521
RightForeArm -22.300861 0.000000 29.320218
RightHand -4.273061 -0.000000 9.959261
RightHandThumb1 -24.326973 -0.000000 -32.862282
LeftUpLeg -65.140843 17.985260 18.769743
LeftLeg 103.901706 -0.000000 -0.000000
LeftFoot 43.018330 -1.677471 -14.510764
LeftToeBase 3.678818 -0.000000 -0.000000
RightUpLeg -23.596426 -17.736486 -10.883428
RightLeg 20.672747 -0.000000 -0.000000
RightFoot -11.031132 -26.808683 -5.779352
RightToeBase -1.145763 -0.000000 0.000000
2388
root -8.952250 33.664851 -5.270477 22.834780 24.702247 24.684370
Spine -0.608949 2.996725 -12.463533
Head -7.104327 12.539612 -0.653207
LeftShoulder -0.984562 5.622319 14.934343
LeftArm 43.531421 -7.253809 -71.895860
LeftForeArm 1.946866 -0.000000 62.326203
LeftHand -25.492146 -0.000000 31.774521
LeftHandThumb1 -26.253704 0.000000 33.147579
RightShoulder -12.544104 13.870427 -19.847399
RightArm -11.837141 -25.572479 81.474786
RightForeArm -22.340752 -0.000000 29.295389
RightHand -4.248548 -0.000000 10.004251
RightHandThumb1 -24.326973 -0.000000 -32.862282
LeftUpLeg -65.967863 19.195260 17.277818
LeftLeg 103.688988 -0.000000 -0.000000
LeftFoot 42.923861 -1.511309 -14.633410
LeftToeBase 3.140761 -0.000000 -0.000000
RightUpLeg -23.447599 -17.772931 -10.759761
RightLeg 20.561548 -0.000000 -0.000000
RightFoot -11.080076 -27.003536 -5.658454
RightToeBase -1.039764 -0.000000 0.000000
